<mxfile host="Electron" agent="Mozilla/5.0 (Windows NT 10.0; Win64; x64) AppleWebKit/537.36 (KHTML, like Gecko) draw.io/24.7.17 Chrome/128.0.6613.36 Electron/32.0.1 Safari/537.36" version="24.7.17">
  <diagram name="Page-1" id="6zzP6knsja1JU48XKloE">
    <mxGraphModel dx="1195" dy="-115" grid="1" gridSize="10" guides="1" tooltips="1" connect="1" arrows="1" fold="1" page="1" pageScale="1" pageWidth="1169" pageHeight="827" math="0" shadow="0">
      <root>
        <mxCell id="0" />
        <mxCell id="1" parent="0" />
        <mxCell id="E1qXcJ1lgIbAAj26_SF1-13" value="" style="rounded=0;whiteSpace=wrap;html=1;fillColor=none;" parent="1" vertex="1">
          <mxGeometry x="30" y="860" width="610" height="240" as="geometry" />
        </mxCell>
        <mxCell id="E1qXcJ1lgIbAAj26_SF1-5" style="edgeStyle=orthogonalEdgeStyle;rounded=0;orthogonalLoop=1;jettySize=auto;html=1;entryX=0.5;entryY=1;entryDx=0;entryDy=0;strokeColor=#FF0000;endArrow=none;endFill=0;" parent="1" source="bWnsUoUfdbszoJiXEbE0-2" target="bWnsUoUfdbszoJiXEbE0-12" edge="1">
          <mxGeometry relative="1" as="geometry" />
        </mxCell>
        <mxCell id="bWnsUoUfdbszoJiXEbE0-2" value="" style="sketch=0;outlineConnect=0;fontColor=#232F3E;gradientColor=none;fillColor=#DD344C;strokeColor=none;dashed=0;verticalLabelPosition=bottom;verticalAlign=top;align=center;html=1;fontSize=12;fontStyle=0;pointerEvents=1;shape=mxgraph.aws4.role;" parent="1" vertex="1">
          <mxGeometry x="440" y="1030" width="54" height="27" as="geometry" />
        </mxCell>
        <mxCell id="bWnsUoUfdbszoJiXEbE0-3" value="&lt;b&gt;IAM Role&lt;br&gt;Permissions&lt;/b&gt;" style="text;html=1;align=center;verticalAlign=middle;whiteSpace=wrap;rounded=0;movable=1;resizable=1;rotatable=1;deletable=1;editable=1;locked=0;connectable=1;container=0;" parent="1" vertex="1">
          <mxGeometry x="431" y="1057" width="72" height="30" as="geometry" />
        </mxCell>
        <mxCell id="bWnsUoUfdbszoJiXEbE0-10" style="edgeStyle=orthogonalEdgeStyle;rounded=0;orthogonalLoop=1;jettySize=auto;html=1;entryX=0;entryY=0.5;entryDx=0;entryDy=0;entryPerimeter=0;" parent="1" source="bWnsUoUfdbszoJiXEbE0-5" target="bWnsUoUfdbszoJiXEbE0-8" edge="1">
          <mxGeometry relative="1" as="geometry" />
        </mxCell>
        <mxCell id="E1qXcJ1lgIbAAj26_SF1-9" style="edgeStyle=orthogonalEdgeStyle;rounded=0;orthogonalLoop=1;jettySize=auto;html=1;" parent="1" source="bWnsUoUfdbszoJiXEbE0-11" target="E1qXcJ1lgIbAAj26_SF1-6" edge="1">
          <mxGeometry relative="1" as="geometry" />
        </mxCell>
        <mxCell id="bWnsUoUfdbszoJiXEbE0-11" value="" style="sketch=0;points=[[0,0,0],[0.25,0,0],[0.5,0,0],[0.75,0,0],[1,0,0],[0,1,0],[0.25,1,0],[0.5,1,0],[0.75,1,0],[1,1,0],[0,0.25,0],[0,0.5,0],[0,0.75,0],[1,0.25,0],[1,0.5,0],[1,0.75,0]];outlineConnect=0;fontColor=#232F3E;fillColor=#0000FF;strokeColor=#ffffff;dashed=0;verticalLabelPosition=bottom;verticalAlign=top;align=center;html=1;fontSize=12;fontStyle=0;aspect=fixed;shape=mxgraph.aws4.resourceIcon;resIcon=mxgraph.aws4.codebuild;" parent="1" vertex="1">
          <mxGeometry x="440" y="880" width="54" height="54" as="geometry" />
        </mxCell>
        <mxCell id="E1qXcJ1lgIbAAj26_SF1-2" style="edgeStyle=orthogonalEdgeStyle;rounded=0;orthogonalLoop=1;jettySize=auto;html=1;" parent="1" source="bWnsUoUfdbszoJiXEbE0-15" target="bWnsUoUfdbszoJiXEbE0-11" edge="1">
          <mxGeometry relative="1" as="geometry" />
        </mxCell>
        <mxCell id="bWnsUoUfdbszoJiXEbE0-15" value="" style="image;html=1;points=[];align=center;fontSize=12;image=img/lib/azure2/blockchain/Azure_Token_Service.svg;imageBackground=none;" parent="1" vertex="1">
          <mxGeometry x="306" y="880" width="54" height="54" as="geometry" />
        </mxCell>
        <mxCell id="E1qXcJ1lgIbAAj26_SF1-1" style="edgeStyle=orthogonalEdgeStyle;rounded=0;orthogonalLoop=1;jettySize=auto;html=1;" parent="1" source="bWnsUoUfdbszoJiXEbE0-8" target="bWnsUoUfdbszoJiXEbE0-15" edge="1">
          <mxGeometry relative="1" as="geometry" />
        </mxCell>
        <mxCell id="bWnsUoUfdbszoJiXEbE0-12" value="&lt;b&gt;AWS CodeBuild&lt;/b&gt;" style="text;html=1;align=center;verticalAlign=middle;whiteSpace=wrap;rounded=0;movable=1;resizable=1;rotatable=1;deletable=1;editable=1;locked=0;connectable=1;container=0;" parent="1" vertex="1">
          <mxGeometry x="431" y="940" width="72" height="30" as="geometry" />
        </mxCell>
        <mxCell id="E1qXcJ1lgIbAAj26_SF1-6" value="" style="sketch=0;points=[[0,0,0],[0.25,0,0],[0.5,0,0],[0.75,0,0],[1,0,0],[0,1,0],[0.25,1,0],[0.5,1,0],[0.75,1,0],[1,1,0],[0,0.25,0],[0,0.5,0],[0,0.75,0],[1,0.25,0],[1,0.5,0],[1,0.75,0]];outlineConnect=0;fontColor=#232F3E;fillColor=#7AA116;strokeColor=#ffffff;dashed=0;verticalLabelPosition=bottom;verticalAlign=top;align=center;html=1;fontSize=12;fontStyle=0;aspect=fixed;shape=mxgraph.aws4.resourceIcon;resIcon=mxgraph.aws4.s3;" parent="1" vertex="1">
          <mxGeometry x="567" y="880" width="54" height="54" as="geometry" />
        </mxCell>
        <mxCell id="bWnsUoUfdbszoJiXEbE0-8" value="" style="verticalLabelPosition=bottom;html=1;verticalAlign=top;align=center;strokeColor=none;fillColor=#000000;shape=mxgraph.azure.github_code;pointerEvents=1;aspect=fixed;" parent="1" vertex="1">
          <mxGeometry x="169" y="880" width="54" height="54" as="geometry" />
        </mxCell>
        <mxCell id="bWnsUoUfdbszoJiXEbE0-5" value="" style="points=[[0.35,0,0],[0.98,0.51,0],[1,0.71,0],[0.67,1,0],[0,0.795,0],[0,0.65,0]];verticalLabelPosition=bottom;sketch=0;html=1;verticalAlign=top;aspect=fixed;align=center;pointerEvents=1;shape=mxgraph.cisco19.user;strokeColor=#000000;fillColor=#000000;" parent="1" vertex="1">
          <mxGeometry x="49" y="880" width="54" height="54" as="geometry" />
        </mxCell>
        <mxCell id="bWnsUoUfdbszoJiXEbE0-6" value="&lt;b&gt;Developer&lt;/b&gt;" style="text;html=1;align=center;verticalAlign=middle;whiteSpace=wrap;rounded=0;movable=1;resizable=1;rotatable=1;deletable=1;editable=1;locked=0;connectable=1;container=0;" parent="1" vertex="1">
          <mxGeometry x="40" y="940" width="72" height="20" as="geometry" />
        </mxCell>
        <mxCell id="E1qXcJ1lgIbAAj26_SF1-7" value="&lt;b&gt;GitHub&lt;br&gt;Repository&lt;/b&gt;" style="text;html=1;align=center;verticalAlign=middle;whiteSpace=wrap;rounded=0;movable=1;resizable=1;rotatable=1;deletable=1;editable=1;locked=0;connectable=1;container=0;" parent="1" vertex="1">
          <mxGeometry x="160" y="940" width="72" height="30" as="geometry" />
        </mxCell>
        <mxCell id="E1qXcJ1lgIbAAj26_SF1-8" value="&lt;b&gt;GitHub Token&lt;/b&gt;" style="text;html=1;align=center;verticalAlign=middle;whiteSpace=wrap;rounded=0;movable=1;resizable=1;rotatable=1;deletable=1;editable=1;locked=0;connectable=1;container=0;" parent="1" vertex="1">
          <mxGeometry x="297" y="940" width="72" height="30" as="geometry" />
        </mxCell>
        <mxCell id="E1qXcJ1lgIbAAj26_SF1-10" value="&lt;b&gt;S3 Bucket&lt;/b&gt;" style="text;html=1;align=center;verticalAlign=middle;whiteSpace=wrap;rounded=0;movable=1;resizable=1;rotatable=1;deletable=1;editable=1;locked=0;connectable=1;container=0;" parent="1" vertex="1">
          <mxGeometry x="560" y="940" width="70" height="20" as="geometry" />
        </mxCell>
      </root>
    </mxGraphModel>
  </diagram>
</mxfile>
